HIERARCHY
ROOT newVegas:Hips
{
	OFFSET 0.000000 96.479958 0.000000
	CHANNELS 6 Xposition Yposition Zposition Xrotation Yrotation Zrotation
	JOINT newVegas:Pelvis
	{
		OFFSET 0.000000 0.000000 0.000000
		CHANNELS 3 Xrotation Yrotation Zrotation
		JOINT newVegas:LeftUpLeg
		{
			OFFSET 18.735201 -5.666702 -4.541200
			CHANNELS 3 Xrotation Yrotation Zrotation
			JOINT newVegas:LeftLeg
			{
				OFFSET -0.021200 -31.938179 0.493100
				CHANNELS 3 Xrotation Yrotation Zrotation
				JOINT newVegas:LeftFoot
				{
					OFFSET 0.021200 -31.938179 -4.336299
					CHANNELS 3 Xrotation Yrotation Zrotation
					JOINT newVegas:LeftToeBase
					{
						OFFSET 0.943001 -26.722000 15.023500
						CHANNELS 3 Xrotation Yrotation Zrotation
						End Site
						{
							OFFSET 0.000000 30.670183 0.000000
						}
					}
				}
				JOINT newVegas:Left_PantLeg
				{
					OFFSET 0.663870 -9.044666 -1.108900
					CHANNELS 3 Xrotation Yrotation Zrotation
					End Site
					{
						OFFSET 1.415995 20.635357 0.000000
					}
				}
			}
		}
		JOINT newVegas:RightUpLeg
		{
			OFFSET -18.735201 -5.666702 -4.541200
			CHANNELS 3 Xrotation Yrotation Zrotation
			JOINT newVegas:RightLeg
			{
				OFFSET 0.018946 -31.938133 0.493100
				CHANNELS 3 Xrotation Yrotation Zrotation
				JOINT newVegas:RightFoot
				{
					OFFSET -0.018946 -31.938126 -4.336299
					CHANNELS 3 Xrotation Yrotation Zrotation
					JOINT newVegas:RightToeBase
					{
						OFFSET -0.943001 -26.722004 15.023500
						CHANNELS 3 Xrotation Yrotation Zrotation
						End Site
						{
							OFFSET 0.000000 30.670187 0.000000
						}
					}
				}
				JOINT newVegas:Right_PantLeg
				{
					OFFSET -0.661674 -9.044716 -1.108900
					CHANNELS 3 Xrotation Yrotation Zrotation
					End Site
					{
						OFFSET -1.415958 20.635269 0.000000
					}
				}
			}
		}
	}
	JOINT newVegas:Spine
	{
		OFFSET 0.000000 10.199997 -0.299500
		CHANNELS 3 Xrotation Yrotation Zrotation
		JOINT newVegas:Spine1
		{
			OFFSET 0.000000 11.900002 -1.516600
			CHANNELS 3 Xrotation Yrotation Zrotation
			JOINT newVegas:Spine2
			{
				OFFSET 0.000000 13.600006 -2.842500
				CHANNELS 3 Xrotation Yrotation Zrotation
				JOINT newVegas:Neck
				{
					OFFSET 0.000000 9.624100 -2.890100
					CHANNELS 3 Xrotation Yrotation Zrotation
					JOINT newVegas:Head
					{
						OFFSET 0.000000 14.068802 -1.351900
						CHANNELS 3 Xrotation Yrotation Zrotation
						JOINT newVegas:Hair_Back
						{
							OFFSET 0.000000 3.231903 -17.524799
							CHANNELS 3 Xrotation Yrotation Zrotation
							End Site
							{
								OFFSET 0.000000 19.849884 0.000000
							}
						}
						JOINT newVegas:Hair_Front
						{
							OFFSET 0.000000 31.260406 4.573800
							CHANNELS 3 Xrotation Yrotation Zrotation
							JOINT newVegas:Hair_Front1
							{
								OFFSET 0.000000 2.284103 11.993300
								CHANNELS 3 Xrotation Yrotation Zrotation
								JOINT newVegas:Hair_Front2
								{
									OFFSET 0.000000 2.284103 11.993300
									CHANNELS 3 Xrotation Yrotation Zrotation
									End Site
									{
										OFFSET 0.000000 12.208862 0.000000
									}
								}
							}
						}
						JOINT newVegas:Jowel
						{
							OFFSET 0.000000 -7.458206 6.864100
							CHANNELS 3 Xrotation Yrotation Zrotation
							End Site
							{
								OFFSET 0.000000 19.849884 0.000000
							}
						}
					}
				}
				JOINT newVegas:LeftShoulder
				{
					OFFSET 15.263000 10.923401 -0.547700
					CHANNELS 3 Xrotation Yrotation Zrotation
					JOINT newVegas:LeftArm
					{
						OFFSET 25.438599 -2.830597 -13.032500
						CHANNELS 3 Xrotation Yrotation Zrotation
						JOINT newVegas:LeftForeArm
						{
							OFFSET 29.960503 0.000000 0.000000
							CHANNELS 3 Xrotation Yrotation Zrotation
							JOINT newVegas:LeftHand
							{
								OFFSET 27.849251 0.000000 0.000000
								CHANNELS 3 Xrotation Yrotation Zrotation
								JOINT newVegas:LeftHandThumb1
								{
									OFFSET 4.487587 -3.305161 6.305391
									CHANNELS 3 Xrotation Yrotation Zrotation
									JOINT newVegas:LeftHandThumb2
									{
										OFFSET 5.480453 -3.164139 3.164143
										CHANNELS 3 Xrotation Yrotation Zrotation
										JOINT newVegas:LeftHandThumb3
										{
											OFFSET 5.159721 -2.978973 2.978967
											CHANNELS 3 Xrotation Yrotation Zrotation
											End Site
											{
												OFFSET 2.494507 5.926697 1.738678
											}
										}
									}
								}
								JOINT newVegas:LeftHandIndex1
								{
									OFFSET 18.578728 -0.527832 5.208049
									CHANNELS 3 Xrotation Yrotation Zrotation
									JOINT newVegas:LeftHandIndex2
									{
										OFFSET 3.192009 0.000000 0.000000
										CHANNELS 3 Xrotation Yrotation Zrotation
										JOINT newVegas:LeftHandIndex3
										{
											OFFSET 3.835129 0.000000 0.000000
											CHANNELS 3 Xrotation Yrotation Zrotation
											End Site
											{
												OFFSET -0.034599 3.816971 0.371180
											}
										}
									}
								}
								JOINT newVegas:LeftHandMiddle1
								{
									OFFSET 18.476105 0.000000 0.000000
									CHANNELS 3 Xrotation Yrotation Zrotation
									JOINT newVegas:LeftHandMiddle2
									{
										OFFSET 3.324875 0.000000 0.000000
										CHANNELS 3 Xrotation Yrotation Zrotation
										JOINT newVegas:LeftHandMiddle3
										{
											OFFSET 4.596550 0.000000 0.000000
											CHANNELS 3 Xrotation Yrotation Zrotation
											End Site
											{
												OFFSET 0.057701 4.578827 0.399218
											}
										}
									}
								}
								JOINT newVegas:LeftHandRing1
								{
									OFFSET 17.732719 0.121887 -4.201567
									CHANNELS 3 Xrotation Yrotation Zrotation
									JOINT newVegas:LeftHandRing2
									{
										OFFSET 2.733170 0.000000 0.000000
										CHANNELS 3 Xrotation Yrotation Zrotation
										JOINT newVegas:LeftHandRing3
										{
											OFFSET 3.178268 0.000000 0.000000
											CHANNELS 3 Xrotation Yrotation Zrotation
											End Site
											{
												OFFSET 0.119102 3.170624 0.185394
											}
										}
									}
								}
								JOINT newVegas:LeftHandPinky1
								{
									OFFSET 15.989624 -0.606689 -7.535461
									CHANNELS 3 Xrotation Yrotation Zrotation
									JOINT newVegas:LeftHandPinky2
									{
										OFFSET 2.538986 0.000000 0.000000
										CHANNELS 3 Xrotation Yrotation Zrotation
										JOINT newVegas:LeftHandPinky3
										{
											OFFSET 2.593102 0.000000 0.000000
											CHANNELS 3 Xrotation Yrotation Zrotation
											End Site
											{
												OFFSET -0.150902 2.584198 0.152708
											}
										}
									}
								}
							}
							JOINT newVegas:Left_Sleeve
							{
								OFFSET 0.267448 -0.649796 0.577675
								CHANNELS 3 Xrotation Yrotation Zrotation
								End Site
								{
									OFFSET 0.000000 15.991241 0.000000
								}
							}
							JOINT newVegas:Left_CapeC
							{
								OFFSET 15.715958 -8.608795 -6.935905
								CHANNELS 3 Xrotation Yrotation Zrotation
								JOINT newVegas:Left_CapeC1
								{
									OFFSET 0.000000 -8.688499 0.000000
									CHANNELS 3 Xrotation Yrotation Zrotation
									End Site
									{
										OFFSET 0.000000 8.688499 0.000000
									}
								}
							}
						}
						JOINT newVegas:Left_CapeB
						{
							OFFSET 26.118385 -8.608795 -7.079235
							CHANNELS 3 Xrotation Yrotation Zrotation
							JOINT newVegas:Left_CapeB1
							{
								OFFSET 0.000000 -8.688499 0.000000
								CHANNELS 3 Xrotation Yrotation Zrotation
								End Site
								{
									OFFSET 0.000000 8.688499 0.000000
								}
							}
						}
						JOINT newVegas:Left_CapeA
						{
							OFFSET 5.115639 -8.608795 -10.395809
							CHANNELS 3 Xrotation Yrotation Zrotation
							JOINT newVegas:Left_CapeA1
							{
								OFFSET 0.000000 -8.688499 0.000000
								CHANNELS 3 Xrotation Yrotation Zrotation
								End Site
								{
									OFFSET 0.000000 8.688499 0.000000
								}
							}
						}
					}
				}
				JOINT newVegas:RightShoulder
				{
					OFFSET -15.263000 10.923401 -0.547700
					CHANNELS 3 Xrotation Yrotation Zrotation
					JOINT newVegas:RightArm
					{
						OFFSET -25.438599 -2.830597 -13.032500
						CHANNELS 3 Xrotation Yrotation Zrotation
						JOINT newVegas:RightForeArm
						{
							OFFSET -29.960503 0.000000 0.000000
							CHANNELS 3 Xrotation Yrotation Zrotation
							JOINT newVegas:RightHand
							{
								OFFSET -27.849251 0.000000 0.000000
								CHANNELS 3 Xrotation Yrotation Zrotation
								JOINT newVegas:RightHandThumb1
								{
									OFFSET -4.487587 -3.305161 6.305391
									CHANNELS 3 Xrotation Yrotation Zrotation
									JOINT newVegas:RightHandThumb2
									{
										OFFSET -5.480453 -3.164139 3.164143
										CHANNELS 3 Xrotation Yrotation Zrotation
										JOINT newVegas:RightHandThumb3
										{
											OFFSET -5.159721 -2.978973 2.978967
											CHANNELS 3 Xrotation Yrotation Zrotation
											End Site
											{
												OFFSET -2.494507 5.926697 1.738678
											}
										}
									}
								}
								JOINT newVegas:RightHandIndex1
								{
									OFFSET -18.578728 -0.527832 5.208049
									CHANNELS 3 Xrotation Yrotation Zrotation
									JOINT newVegas:RightHandIndex2
									{
										OFFSET -3.192009 0.000000 0.000000
										CHANNELS 3 Xrotation Yrotation Zrotation
										JOINT newVegas:RightHandIndex3
										{
											OFFSET -3.835129 0.000000 0.000000
											CHANNELS 3 Xrotation Yrotation Zrotation
											End Site
											{
												OFFSET 0.034599 3.816971 0.371180
											}
										}
									}
								}
								JOINT newVegas:RightHandMiddle1
								{
									OFFSET -18.476105 0.000000 0.000000
									CHANNELS 3 Xrotation Yrotation Zrotation
									JOINT newVegas:RightHandMiddle2
									{
										OFFSET -3.324875 0.000000 0.000000
										CHANNELS 3 Xrotation Yrotation Zrotation
										JOINT newVegas:RightHandMiddle3
										{
											OFFSET -4.596550 0.000000 0.000000
											CHANNELS 3 Xrotation Yrotation Zrotation
											End Site
											{
												OFFSET -0.057701 4.578827 0.399218
											}
										}
									}
								}
								JOINT newVegas:RightHandRing1
								{
									OFFSET -17.732719 0.121887 -4.201567
									CHANNELS 3 Xrotation Yrotation Zrotation
									JOINT newVegas:RightHandRing2
									{
										OFFSET -2.733170 0.000000 0.000000
										CHANNELS 3 Xrotation Yrotation Zrotation
										JOINT newVegas:RightHandRing3
										{
											OFFSET -3.178268 0.000000 0.000000
											CHANNELS 3 Xrotation Yrotation Zrotation
											End Site
											{
												OFFSET -0.119102 3.170624 0.185394
											}
										}
									}
								}
								JOINT newVegas:RightHandPinky1
								{
									OFFSET -15.989624 -0.606689 -7.535461
									CHANNELS 3 Xrotation Yrotation Zrotation
									JOINT newVegas:RightHandPinky2
									{
										OFFSET -2.538986 0.000000 0.000000
										CHANNELS 3 Xrotation Yrotation Zrotation
										JOINT newVegas:RightHandPinky3
										{
											OFFSET -2.593102 0.000000 0.000000
											CHANNELS 3 Xrotation Yrotation Zrotation
											End Site
											{
												OFFSET 0.150902 2.584198 0.152708
											}
										}
									}
								}
							}
							JOINT newVegas:Right_CapeC
							{
								OFFSET -15.715958 -8.608795 -6.935905
								CHANNELS 3 Xrotation Yrotation Zrotation
								JOINT newVegas:Right_CapeC1
								{
									OFFSET 0.000000 -8.688499 0.000000
									CHANNELS 3 Xrotation Yrotation Zrotation
									End Site
									{
										OFFSET 0.000000 8.688499 0.000000
									}
								}
							}
							JOINT newVegas:Right_Sleeve
							{
								OFFSET -0.267448 -0.649994 0.577675
								CHANNELS 3 Xrotation Yrotation Zrotation
								End Site
								{
									OFFSET 0.000000 15.991302 0.000000
								}
							}
						}
						JOINT newVegas:Right_CapeA
						{
							OFFSET -5.115540 -8.608795 -10.395824
							CHANNELS 3 Xrotation Yrotation Zrotation
							JOINT newVegas:Right_CapeA1
							{
								OFFSET 0.000000 -8.688499 0.000000
								CHANNELS 3 Xrotation Yrotation Zrotation
								End Site
								{
									OFFSET 0.000000 8.688499 0.000000
								}
							}
						}
						JOINT newVegas:Right_CapeB
						{
							OFFSET -26.118187 -8.608795 -7.079266
							CHANNELS 3 Xrotation Yrotation Zrotation
							JOINT newVegas:Right_CapeB1
							{
								OFFSET 0.000000 -8.688499 0.000000
								CHANNELS 3 Xrotation Yrotation Zrotation
								End Site
								{
									OFFSET 0.000000 8.688499 0.000000
								}
							}
						}
					}
				}
				JOINT newVegas:Left_Collar
				{
					OFFSET 18.625099 8.655502 8.828100
					CHANNELS 3 Xrotation Yrotation Zrotation
					JOINT newVegas:Left_Collar1
					{
						OFFSET 14.783401 10.540405 -1.259500
						CHANNELS 3 Xrotation Yrotation Zrotation
						End Site
						{
							OFFSET 0.000000 18.199875 0.000000
						}
					}
				}
				JOINT newVegas:Collar_Back
				{
					OFFSET 0.000000 15.630707 -20.132601
					CHANNELS 3 Xrotation Yrotation Zrotation
					End Site
					{
						OFFSET 0.000000 22.523010 0.000000
					}
				}
				JOINT newVegas:Left_Peck
				{
					OFFSET 17.239599 -5.132599 25.482599
					CHANNELS 3 Xrotation Yrotation Zrotation
					End Site
					{
						OFFSET 0.000000 22.523010 0.000000
					}
				}
				JOINT newVegas:Right_Peck
				{
					OFFSET -17.239599 -5.132202 25.482599
					CHANNELS 3 Xrotation Yrotation Zrotation
					End Site
					{
						OFFSET 0.000000 22.523010 0.000000
					}
				}
				JOINT newVegas:Right_Collar
				{
					OFFSET -18.625099 8.655792 8.828100
					CHANNELS 3 Xrotation Yrotation Zrotation
					JOINT newVegas:Right_Collar1
					{
						OFFSET -14.783401 10.539993 -1.259500
						CHANNELS 3 Xrotation Yrotation Zrotation
						End Site
						{
							OFFSET 0.000000 18.199631 0.000000
						}
					}
				}
			}
		}
		JOINT newVegas:Belly
		{
			OFFSET 0.000000 -6.540398 9.014299
			CHANNELS 3 Xrotation Yrotation Zrotation
			End Site
			{
				OFFSET 0.000000 11.566666 0.000000
			}
		}
	}
	JOINT newVegas:ElvisFacialAnim_Joint
	{
		OFFSET 1.000000 -95.330101 -8.825800
		CHANNELS 3 Xrotation Yrotation Zrotation
		End Site
		{
			OFFSET 0.000000 35.315800 0.000000
		}
	}
}
MOTION
Frames: 4
Frame Time: 0.033333
2.132971 14.926285 19.718182 -31.647118 -8.399966 -13.004570 0.000001 -0.000000 -0.000001 -143.227906 -19.143857 -0.624216 92.834811 -7.507430 9.680823 70.652269 -0.973588 -5.509054 -0.000000 -0.000000 0.000000 0.000000 -0.000000 -0.000000 -117.189941 -43.696945 -79.332545 118.028934 12.984096 12.274082 43.331181 19.026578 14.618473 -0.000001 -0.000000 -0.000001 -0.000001 -0.000000 0.000000 31.586251 -1.227995 5.998283 23.685284 1.711320 0.262873 8.466446 1.893890 -0.507359 -0.821526 0.548431 -1.044512 -0.821515 0.548427 -1.044509 -0.000001 0.000001 -0.000000 -0.821472 0.548424 -1.044512 -0.821526 0.548422 -1.044509 -0.000000 -0.000001 0.000001 -0.000001 0.000001 -0.000000 11.231725 -32.638305 9.335900 5.507261 -30.820108 20.208768 0.000271 -87.902991 0.000385 18.371990 -1.030203 -33.333400 14.161890 3.759019 1.663019 6.481381 14.109450 -2.313761 -0.000000 -0.000003 -0.000001 0.326201 4.093238 -17.182266 0.671779 2.725844 -27.684399 0.000001 -0.000000 -0.000000 0.451870 4.455939 -20.937019 1.402853 3.804922 -40.465456 0.000001 0.000001 -0.000002 0.775233 5.156062 -28.490555 1.697669 4.124799 -44.727063 0.000001 -0.000000 -0.000002 0.859775 5.305907 -30.175424 1.665200 4.091845 -44.273976 -0.000000 -0.000003 -0.000001 0.000001 -0.000000 -0.000000 0.000001 -0.000000 -0.000000 0.000001 -0.000000 -0.000000 0.000001 0.000001 0.000001 0.000000 0.000000 0.000001 0.000001 0.000001 0.000001 -0.000001 -0.000000 0.000001 14.770258 19.214616 4.974974 -10.581149 27.556335 17.796340 -0.000033 66.056248 0.000029 1.587764 -3.598105 -25.760019 -3.639021 -4.412496 -8.337042 4.761591 -29.499553 14.569244 -0.000001 -0.000002 0.000003 0.923137 -4.998055 35.653898 2.296620 -4.015741 59.517415 -0.000000 0.000002 -0.000000 6.429647 -9.816295 49.746395 0.736383 -2.515255 32.631809 0.000001 0.000002 0.000000 6.171156 -10.368680 44.579494 0.724614 -2.496776 32.362249 -0.000002 0.000001 0.000001 5.736557 -14.446485 26.965507 0.651531 -2.377651 30.644183 -0.000001 0.000003 0.000001 -0.000003 0.000002 -0.000001 -0.000003 0.000002 0.000001 -0.000003 0.000002 -0.000000 0.000000 -0.000001 -0.000003 0.000001 -0.000001 -0.000001 0.000000 -0.000001 -0.000003 0.000001 -0.000001 -0.000001 -0.000001 0.000000 -0.000001 -0.000001 0.000000 -0.000001 -0.000001 0.000000 -0.000001 -0.000001 0.000000 -0.000001 -0.000001 0.000000 -0.000001 -0.000001 0.000000 -0.000001 -0.000001 0.000000 -0.000001 0.000000 -0.000001 -0.000000 0.000001 -0.000000 -0.000001 
2.131947 14.927940 19.719410 -31.666048 -8.401845 -13.013419 -0.000000 0.000001 0.000000 -143.215502 -19.160909 -0.630829 92.845159 -7.522966 9.680155 70.654202 -0.981360 -5.531109 -0.000000 0.000000 0.000000 0.000001 0.000000 -0.000000 -117.189394 -43.705113 -79.339013 118.019522 12.960666 12.275739 43.362378 19.046420 14.587959 0.000002 -0.000000 0.000000 0.000001 0.000000 -0.000000 31.604064 -1.241297 5.995330 23.689466 1.708903 0.260603 8.470841 1.890676 -0.510351 -0.821566 0.551939 -1.032083 -0.821551 0.551932 -1.032082 -0.000002 -0.000000 -0.000000 -0.821602 0.551940 -1.032081 -0.821523 0.551937 -1.032083 -0.000001 0.000000 -0.000000 -0.000002 -0.000000 0.000000 11.237568 -32.614864 9.363225 5.518456 -30.833417 20.204265 0.000077 -87.894487 0.000139 18.335885 -1.006246 -33.342029 14.161895 3.759019 1.663014 6.481383 14.109450 -2.313759 0.000002 -0.000000 -0.000003 0.326201 4.093240 -17.182263 0.671778 2.725845 -27.684396 0.000001 -0.000001 -0.000001 0.451871 4.455940 -20.937019 1.402854 3.804922 -40.465456 0.000000 0.000001 -0.000006 0.775232 5.156063 -28.490553 1.697667 4.124799 -44.727053 -0.000000 -0.000001 -0.000000 0.859775 5.305909 -30.175424 1.665195 4.091847 -44.273973 -0.000000 -0.000002 -0.000001 -0.000001 0.000000 -0.000001 -0.000001 0.000000 -0.000001 -0.000001 0.000000 -0.000001 0.000000 0.000001 0.000001 0.000000 0.000001 0.000002 0.000000 0.000001 0.000001 0.000000 0.000001 0.000001 14.769774 19.218050 4.979372 -10.604508 27.568180 17.803376 -0.000011 66.050798 0.000023 1.620602 -3.588595 -25.731775 -3.639022 -4.412497 -8.337038 4.761594 -29.499543 14.569237 0.000002 0.000001 -0.000000 0.923138 -4.998056 35.653905 2.296621 -4.015744 59.517415 -0.000002 -0.000002 -0.000001 6.429646 -9.816296 49.746388 0.736387 -2.515255 32.631806 0.000001 0.000002 0.000002 6.171152 -10.368681 44.579497 0.724615 -2.496785 32.362249 0.000002 -0.000003 -0.000002 5.736555 -14.446487 26.965505 0.651531 -2.377648 30.644187 0.000003 0.000002 -0.000001 -0.000000 -0.000001 -0.000000 -0.000000 -0.000001 0.000000 -0.000000 -0.000001 -0.000001 0.000001 0.000001 0.000002 0.000001 0.000002 0.000003 0.000001 0.000001 0.000002 0.000001 0.000002 0.000003 0.000004 0.000001 -0.000000 0.000004 0.000001 -0.000000 0.000004 0.000001 -0.000000 0.000004 0.000001 -0.000000 0.000004 0.000001 -0.000000 0.000004 0.000001 -0.000000 0.000004 0.000001 -0.000000 -0.000000 0.000000 -0.000000 -0.000000 0.000001 0.000000 
2.132584 14.926895 19.712757 -31.689137 -8.406041 -13.019377 0.000003 0.000000 0.000000 -143.190258 -19.172013 -0.631943 92.844551 -7.528883 9.680619 70.657194 -0.982846 -5.541273 0.000000 0.000000 -0.000000 -0.000001 0.000000 0.000000 -117.121079 -43.722865 -79.311528 118.016667 12.981463 12.274420 43.328763 19.037245 14.632820 0.000002 -0.000000 0.000000 -0.000001 -0.000000 -0.000000 31.629035 -1.251924 5.998096 23.692774 1.706423 0.257621 8.474356 1.887396 -0.514016 -0.824151 0.554480 -1.026355 -0.824135 0.554481 -1.026357 0.000001 -0.000001 0.000000 -0.824083 0.554477 -1.026354 -0.824191 0.554480 -1.026355 -0.000000 -0.000000 -0.000000 0.000001 -0.000001 0.000000 11.245616 -32.598454 9.393444 5.538242 -30.826689 20.206478 0.000054 -87.896427 0.000093 18.291298 -0.981501 -33.347289 14.161889 3.759018 1.663011 6.481383 14.109448 -2.313761 -0.000001 0.000000 -0.000003 0.326200 4.093238 -17.182266 0.671779 2.725845 -27.684401 -0.000000 -0.000001 -0.000001 0.451869 4.455939 -20.937025 1.402853 3.804921 -40.465449 -0.000002 0.000001 -0.000000 0.775233 5.156064 -28.490556 1.697668 4.124798 -44.727060 -0.000001 -0.000001 0.000001 0.859773 5.305907 -30.175427 1.665198 4.091845 -44.273976 0.000001 -0.000001 -0.000005 -0.000001 0.000000 -0.000001 -0.000001 0.000000 -0.000001 -0.000000 0.000000 -0.000001 -0.000000 0.000001 -0.000000 -0.000000 0.000001 0.000000 -0.000000 0.000001 -0.000000 -0.000000 0.000001 -0.000000 14.769359 19.218925 4.980944 -10.645523 27.572466 17.819578 0.000011 66.064458 0.000003 1.712547 -3.596208 -25.651206 -3.639022 -4.412496 -8.337042 4.761590 -29.499546 14.569237 0.000001 0.000000 0.000001 0.923137 -4.998056 35.653902 2.296622 -4.015741 59.517415 -0.000000 -0.000002 0.000000 6.429647 -9.816297 49.746392 0.736382 -2.515256 32.631799 0.000003 0.000001 0.000000 6.171153 -10.368680 44.579494 0.724610 -2.496783 32.362252 -0.000001 -0.000003 -0.000001 5.736553 -14.446485 26.965510 0.651531 -2.377644 30.644183 0.000000 -0.000002 -0.000001 0.000000 0.000000 0.000001 -0.000001 -0.000000 0.000001 0.000000 -0.000000 -0.000000 0.000003 0.000003 0.000001 0.000003 0.000003 0.000003 0.000003 0.000003 0.000001 0.000003 0.000003 0.000003 -0.000004 -0.000001 0.000001 -0.000004 -0.000001 0.000001 -0.000004 -0.000001 0.000001 -0.000004 -0.000001 0.000001 -0.000004 -0.000001 0.000001 -0.000004 -0.000001 0.000001 -0.000004 -0.000001 0.000001 -0.000000 0.000000 0.000000 0.000003 0.000000 0.000000 
2.133028 14.925484 19.706306 -31.697682 -8.415514 -13.017369 -0.000001 0.000000 0.000001 -143.173169 -19.178770 -0.626929 92.842099 -7.532133 9.681435 70.655746 -0.985692 -5.549407 -0.000000 -0.000001 -0.000000 -0.000000 0.000000 -0.000000 -117.049594 -43.737390 -79.272043 118.018606 13.014960 12.274661 43.279183 19.014511 14.692046 -0.000001 -0.000001 -0.000001 -0.000001 0.000001 -0.000000 31.639724 -1.258472 6.004584 23.692699 1.703904 0.255908 8.474374 1.884836 -0.516145 -0.829697 0.555747 -1.024377 -0.829700 0.555747 -1.024377 -0.000001 -0.000002 0.000000 -0.829661 0.555744 -1.024379 -0.829688 0.555745 -1.024379 0.000000 -0.000000 -0.000000 -0.000001 -0.000002 0.000000 11.250910 -32.588854 9.410754 5.565289 -30.812827 20.213776 -0.000175 -87.902513 -0.000163 18.275266 -0.964848 -33.334120 14.161888 3.759016 1.663011 6.481379 14.109447 -2.313763 0.000003 -0.000003 -0.000005 0.326200 4.093238 -17.182268 0.671779 2.725844 -27.684398 0.000000 -0.000001 0.000000 0.451870 4.455938 -20.937019 1.402854 3.804921 -40.465456 0.000001 0.000000 -0.000002 0.775232 5.156061 -28.490558 1.697665 4.124799 -44.727053 0.000000 -0.000001 -0.000001 0.859771 5.305907 -30.175424 1.665196 4.091847 -44.273979 -0.000000 -0.000003 -0.000001 -0.000001 0.000000 0.000002 -0.000001 0.000000 0.000002 -0.000001 -0.000000 0.000002 -0.000000 -0.000001 -0.000001 -0.000001 -0.000003 -0.000000 -0.000000 -0.000001 -0.000001 -0.000001 -0.000002 -0.000001 14.768489 19.220357 4.982989 -10.656897 27.579742 17.813567 0.000008 66.083501 -0.000000 1.764773 -3.623820 -25.595673 -3.639022 -4.412495 -8.337039 4.761597 -29.499549 14.569251 0.000003 -0.000003 0.000001 0.923140 -4.998055 35.653902 2.296616 -4.015738 59.517408 0.000000 0.000003 0.000003 6.429646 -9.816295 49.746395 0.736380 -2.515255 32.631802 0.000001 0.000003 0.000002 6.171157 -10.368680 44.579494 0.724614 -2.496781 32.362252 -0.000002 -0.000003 -0.000001 5.736558 -14.446487 26.965505 0.651530 -2.377646 30.644190 -0.000003 0.000002 -0.000000 -0.000001 -0.000001 -0.000000 -0.000001 -0.000001 0.000000 -0.000001 -0.000001 -0.000001 -0.000000 -0.000001 0.000001 -0.000000 0.000000 0.000003 -0.000000 -0.000001 0.000001 -0.000000 0.000000 0.000004 0.000001 -0.000000 -0.000000 0.000001 -0.000000 -0.000000 0.000001 -0.000000 -0.000000 0.000001 -0.000000 -0.000000 0.000001 -0.000000 -0.000000 0.000001 -0.000000 -0.000000 0.000001 -0.000000 -0.000000 -0.000000 -0.000001 0.000000 -0.000001 0.000000 0.000001 
